<svg xmlns="http://www.w3.org/2000/svg" viewBox="0.00 -71.60 587.47 227.92" width="587" height="228">
<g transform="translate(-20.72,-71.60) scale(0.444531)"><path fill-rule="evenodd" fill="#151E28" d="M 327.56,1.71 c -53.17,14.05 -110.48,83.37 -128.6,155.52 c -6.04,24.29 -8.4,56.72 -5.65,79.43 c 0.53,4.33 0.98,8.21 0.98,8.6 c 0,0.46 -2.43,0.92 -6.7,1.18 c -41.36,2.82 -82.19,21.73 -114.55,53.11 c -11.82,11.49 -26.46,30 -26.46,33.41 c 0,3.15 2.23,3.15 15.03,-0.13 c 21.66,-5.65 37.02,-7.61 54.22,-7.02 c 15.49,0.53 30.59,3.35 40.57,7.61 c 3.68,1.58 3.94,0.59 -2.69,11.23 c -16.61,26.65 -35.25,47.66 -49.56,55.73 c -6.5,3.68 -6.5,4.2 0.26,20.61 c 4.79,11.49 4.86,11.62 8.14,13.85 c 4.73,3.09 15.36,12.28 17.99,15.56 c 8.01,9.72 5.97,15.82 -7.61,23.3 c -1.9,1.05 -3.41,2.17 -3.28,2.56 c 0.39,1.18 9.85,8.86 15.89,12.87 c 38.99,26 88.29,29.93 140.48,11.29 c 90.26,-32.17 166.08,-122.36 185.71,-220.77 c 6.43,-32.36 4.33,-66.24 -5.84,-93.61 c -4.46,-11.88 -16.54,-33.74 -18.64,-33.74 c -1.71,0 -1.9,1.97 -0.92,10.18 c 2.95,26.06 -3.15,46.74 -17.92,60.79 c -28.88,27.31 -80.22,18.58 -102.6,-17.46 c -26.72,-42.87 -0.46,-95.51 51.07,-102.21 c 6.5,-0.85 6.11,-1.12 -4.33,-3.15 c -11.36,-2.23 -28.16,-2.43 -40.57,-0.46 c -1.51,0.26 1.58,-20.94 4.99,-34.33 c 4.4,-17.13 13.26,-40.63 21.6,-57.18 c 2.56,-5.05 2.49,-5.65 -0.79,-7.16 c -4.14,-1.9 -12.21,-1.71 -20.22,0.39 z M 370.56,129.85 c -5.25,2.49 -8.8,8.6 -7.94,13.79 c 2.56,16.02 26.06,14.25 26,-1.97 c -0.07,-9.12 -9.91,-15.62 -18.05,-11.82 z"/><path fill="#FF8C42" d="M 442.77,102.01 c -14.9,5.51 -38.4,15.95 -38.4,17.07 c 0,0.39 2.23,2.49 4.99,4.66 c 6.89,5.38 14.51,13.65 20.74,22.52 c 2.89,4.07 5.45,7.22 5.78,7.02 c 0.33,-0.2 1.51,-2.49 2.76,-5.12 c 1.18,-2.56 5.78,-12.14 10.31,-21.14 c 9.32,-18.84 9.98,-21.14 6.89,-24.49 c -2.89,-3.15 -5.84,-3.22 -13.06,-0.53 z M 60.78,421.18 c -4.66,1.71 -6.96,4.86 -6.96,9.45 c 0,5.58 4.6,11.49 13.65,17.59 c 3.15,2.1 5.71,4.07 5.71,4.4 c 0,0.33 -2.04,1.31 -4.6,2.17 c -16.54,5.58 -23.11,17.66 -13.26,24.22 c 15.03,10.04 54.75,4.79 74.51,-9.85 c 9.06,-6.63 6.89,-14.51 -7.42,-26.65 c -13.19,-11.23 -25.6,-17.46 -42.01,-21.07 c -6.96,-1.51 -15.89,-1.64 -19.63,-0.26 z"/></g>
<path fill="#151E28" d="M246.57 -21.9H267.47Q267.77 -18.2 269.67 -16.5Q271.57 -14.8 274.57 -14.8Q277.27 -14.8 279.02 -16.15Q280.77 -17.5 280.77 -19.9Q280.77 -23 277.87 -24.7Q274.97 -26.4 268.47 -28.5Q261.57 -30.8 257.32 -32.95Q253.07 -35.1 249.92 -39.25Q246.77 -43.4 246.77 -50.1Q246.77 -56.9 250.17 -61.75Q253.57 -66.6 259.57 -69.1Q265.57 -71.6 273.17 -71.6Q285.47 -71.6 292.82 -65.85Q300.17 -60.1 300.67 -49.7H279.37Q279.27 -52.9 277.42 -54.5Q275.57 -56.1 272.67 -56.1Q270.47 -56.1 269.07 -54.8Q267.67 -53.5 267.67 -51.1Q267.67 -49.1 269.22 -47.65Q270.77 -46.2 273.07 -45.15Q275.37 -44.1 279.87 -42.5Q286.57 -40.2 290.92 -37.95Q295.27 -35.7 298.42 -31.65Q301.57 -27.6 301.57 -21.4Q301.57 -15.1 298.42 -10.1Q295.27 -5.1 289.32 -2.2Q283.37 0.7 275.27 0.7Q262.97 0.7 255.07 -5.15Q247.17 -11 246.57 -21.9Z M371.77 -70.5V0H352.17V-28.3H328.27V0H308.67V-70.5H328.27V-44H352.17V-70.5Z M378.57 -35.5Q378.57 -45.9 383.42 -54.15Q388.27 -62.4 396.57 -67Q404.87 -71.6 414.77 -71.6Q424.77 -71.6 433.02 -67Q441.27 -62.4 446.07 -54.15Q450.87 -45.9 450.87 -35.5Q450.87 -25.1 446.07 -16.85Q441.27 -8.6 432.97 -3.95Q424.67 0.7 414.77 0.7Q404.87 0.7 396.57 -3.95Q388.27 -8.6 383.42 -16.85Q378.57 -25.1 378.57 -35.5ZM430.97 -35.5Q430.97 -43.9 426.62 -48.75Q422.27 -53.6 414.77 -53.6Q407.17 -53.6 402.87 -48.75Q398.57 -43.9 398.57 -35.5Q398.57 -27.2 402.87 -22.35Q407.17 -17.5 414.77 -17.5Q422.27 -17.5 426.62 -22.4Q430.97 -27.3 430.97 -35.5Z M455.27 -35.5Q455.27 -45.9 460.12 -54.15Q464.97 -62.4 473.27 -67Q481.57 -71.6 491.47 -71.6Q501.47 -71.6 509.72 -67Q517.97 -62.4 522.77 -54.15Q527.57 -45.9 527.57 -35.5Q527.57 -25.1 522.77 -16.85Q517.97 -8.6 509.67 -3.95Q501.37 0.7 491.47 0.7Q481.57 0.7 473.27 -3.95Q464.97 -8.6 460.12 -16.85Q455.27 -25.1 455.27 -35.5ZM507.67 -35.5Q507.67 -43.9 503.32 -48.75Q498.97 -53.6 491.47 -53.6Q483.87 -53.6 479.57 -48.75Q475.27 -43.9 475.27 -35.5Q475.27 -27.2 479.57 -22.35Q483.87 -17.5 491.47 -17.5Q498.97 -17.5 503.32 -22.4Q507.67 -27.3 507.67 -35.5Z M587.47 -70.5V-54.9H568.67V0H549.07V-54.9H530.47V-70.5Z M246.57 62.1H267.47Q267.77 65.8 269.67 67.5Q271.57 69.2 274.57 69.2Q277.27 69.2 279.02 67.85Q280.77 66.5 280.77 64.1Q280.77 61 277.87 59.3Q274.97 57.6 268.47 55.5Q261.57 53.2 257.32 51.05Q253.07 48.9 249.92 44.75Q246.77 40.6 246.77 33.9Q246.77 27.1 250.17 22.25Q253.57 17.4 259.57 14.9Q265.57 12.4 273.17 12.4Q285.47 12.4 292.82 18.15Q300.17 23.9 300.67 34.3H279.37Q279.27 31.1 277.42 29.5Q275.57 27.9 272.67 27.9Q270.47 27.9 269.07 29.2Q267.67 30.5 267.67 32.9Q267.67 34.9 269.22 36.35Q270.77 37.8 273.07 38.85Q275.37 39.9 279.87 41.5Q286.57 43.8 290.92 46.05Q295.27 48.3 298.42 52.35Q301.57 56.4 301.57 62.6Q301.57 68.9 298.42 73.9Q295.27 78.9 289.32 81.8Q283.37 84.7 275.27 84.7Q262.97 84.7 255.07 78.85Q247.17 73 246.57 62.1Z M371.77 13.5V84H352.17V55.7H328.27V84H308.67V13.5H328.27V40H352.17V13.5Z M378.57 48.5Q378.57 38.1 383.42 29.85Q388.27 21.6 396.57 17Q404.87 12.4 414.77 12.4Q424.77 12.4 433.02 17Q441.27 21.6 446.07 29.85Q450.87 38.1 450.87 48.5Q450.87 58.9 446.07 67.15Q441.27 75.4 432.97 80.05Q424.67 84.7 414.77 84.7Q404.87 84.7 396.57 80.05Q388.27 75.4 383.42 67.15Q378.57 58.9 378.57 48.5ZM430.97 48.5Q430.97 40.1 426.62 35.25Q422.27 30.4 414.77 30.4Q407.17 30.4 402.87 35.25Q398.57 40.1 398.57 48.5Q398.57 56.8 402.87 61.65Q407.17 66.5 414.77 66.5Q422.27 66.5 426.62 61.6Q430.97 56.7 430.97 48.5Z M455.27 48.5Q455.27 38.1 460.12 29.85Q464.97 21.6 473.27 17Q481.57 12.4 491.47 12.4Q501.47 12.4 509.72 17Q517.97 21.6 522.77 29.85Q527.57 38.1 527.57 48.5Q527.57 58.9 522.77 67.15Q517.97 75.4 509.67 80.05Q501.37 84.7 491.47 84.7Q481.57 84.7 473.27 80.05Q464.97 75.4 460.12 67.15Q455.27 58.9 455.27 48.5ZM507.67 48.5Q507.67 40.1 503.32 35.25Q498.97 30.4 491.47 30.4Q483.87 30.4 479.57 35.25Q475.27 40.1 475.27 48.5Q475.27 56.8 479.57 61.65Q483.87 66.5 491.47 66.5Q498.97 66.5 503.32 61.6Q507.67 56.7 507.67 48.5Z M587.47 13.5V29.1H568.67V84H549.07V29.1H530.47V13.5Z M259.12 145.05H254.66V156H245.65V123.57H259.12Q263.03 123.57 265.77 124.95Q268.51 126.33 269.89 128.77Q271.27 131.21 271.27 134.38Q271.27 137.32 269.91 139.74Q268.55 142.15 265.82 143.6Q263.08 145.05 259.12 145.05ZM262.07 134.38Q262.07 130.84 258.25 130.84H254.66V137.88H258.25Q262.07 137.88 262.07 134.38Z M307.17 130.79V136.08H317.52V142.94H307.17V148.78H318.9V156H298.15V123.57H318.9V130.79Z M376.65 156H367.64L355.63 137.88V156H346.61V123.57H355.63L367.64 141.92V123.57H376.65Z M425.76 134.24Q424.97 132.95 423.62 132.26Q422.26 131.57 420.42 131.57Q417.02 131.57 415.06 133.78Q413.11 135.99 413.11 139.72Q413.11 143.9 415.2 146.09Q417.29 148.27 421.29 148.27Q426.03 148.27 428.06 143.99H418.99V137.51H435.83V146.25Q434.77 148.82 432.73 151.08Q430.68 153.33 427.55 154.78Q424.42 156.23 420.42 156.23Q415.54 156.23 411.8 154.14Q408.05 152.04 406 148.3Q403.95 144.55 403.95 139.72Q403.95 134.93 406 131.18Q408.05 127.43 411.77 125.34Q415.5 123.25 420.37 123.25Q426.49 123.25 430.49 126.19Q434.5 129.14 435.46 134.24Z M471.96 123.57V142.38Q471.96 145.01 473.18 146.43Q474.4 147.86 476.89 147.86Q479.37 147.86 480.63 146.41Q481.9 144.96 481.9 142.38V123.57H490.92V142.38Q490.92 146.85 489.03 150Q487.14 153.15 483.9 154.74Q480.66 156.32 476.7 156.32Q472.75 156.32 469.64 154.74Q466.54 153.15 464.76 150.02Q462.99 146.89 462.99 142.38V123.57Z M528.15 123.57V156H519.14V123.57Z M586.59 156H577.58L565.57 137.88V156H556.56V123.57H565.57L577.58 141.92V123.57H586.59Z"/>
</svg>
