<svg preserveAspectRatio="none" overflow="visible" style="display: block;" width="21.6" height="21.6" viewBox="0 0 21.6 21.6" fill="none" xmlns="http://www.w3.org/2000/svg">
<g id="history_2">
<mask id="mask0_0_16" style="mask-type:alpha" maskUnits="userSpaceOnUse" x="0" y="0" width="22" height="22">
<rect id="Bounding box" width="21.6" height="21.6" fill="#D9D9D9"/>
</mask>
<g mask="url(#mask0_0_16)">
<path id="history_2_2" d="M10.8 19.44C8.4 19.44 6.36 18.6 4.68 16.92C3 15.24 2.16 13.2 2.16 10.8H3.78C3.78 12.75 4.4625 14.4075 5.8275 15.7725C7.1925 17.1375 8.85 17.82 10.8 17.82C12.75 17.82 14.4075 17.1375 15.7725 15.7725C17.1375 14.4075 17.82 12.75 17.82 10.8C17.82 8.85 17.1375 7.1925 15.7725 5.8275C14.4075 4.4625 12.75 3.78 10.8 3.78C9.6 3.78 8.475 4.065 7.425 4.635C6.375 5.205 5.5275 6 4.8825 7.02H7.56V8.64H2.43C2.925 6.72 3.94875 5.16 5.50125 3.96C7.05375 2.76 8.82 2.16 10.8 2.16C12 2.16 13.1213 2.385 14.1638 2.835C15.2063 3.285 16.1213 3.90375 16.9088 4.69125C17.6963 5.47875 18.315 6.39375 18.765 7.43625C19.215 8.47875 19.44 9.59625 19.44 10.7888C19.44 11.9813 19.215 13.1025 18.765 14.1525C18.315 15.2025 17.6963 16.1213 16.9088 16.9088C16.1213 17.6963 15.2063 18.315 14.1638 18.765C13.1213 19.215 12 19.44 10.8 19.44ZM13.05 13.86L9.99 10.8V6.48H11.61V10.125L14.1975 12.7125L13.05 13.86Z" fill="#232930"/>
</g>
</g>
</svg>
