<svg preserveAspectRatio="none" overflow="visible" style="display: block;" width="18.2673" height="18.2673" viewBox="0 0 18.2673 18.2673" fill="none" xmlns="http://www.w3.org/2000/svg">
<g id="history_2">
<mask id="mask0_0_82" style="mask-type:alpha" maskUnits="userSpaceOnUse" x="0" y="0" width="19" height="19">
<rect id="Bounding box" width="18.2673" height="18.2673" fill="#D9D9D9"/>
</mask>
<g mask="url(#mask0_0_82)">
<path id="history_2_2" d="M9.13366 16.4406C7.10396 16.4406 5.37871 15.7302 3.95792 14.3094C2.53713 12.8886 1.82673 11.1634 1.82673 9.13366H3.19678C3.19678 10.7828 3.77398 12.1846 4.92837 13.339C6.08277 14.4933 7.48453 15.0705 9.13366 15.0705C10.7828 15.0705 12.1846 14.4933 13.339 13.339C14.4933 12.1846 15.0705 10.7828 15.0705 9.13366C15.0705 7.48453 14.4933 6.08277 13.339 4.92837C12.1846 3.77398 10.7828 3.19678 9.13366 3.19678C8.11881 3.19678 7.16739 3.43781 6.27939 3.91986C5.3914 4.40192 4.67466 5.07426 4.12918 5.93688H6.39356V7.30693H2.05507C2.4737 5.68317 3.3395 4.36386 4.65246 3.34901C5.96542 2.33416 7.45916 1.82673 9.13366 1.82673C10.1485 1.82673 11.0968 2.01702 11.9784 2.39759C12.8601 2.77816 13.6339 3.30144 14.2999 3.96744C14.9659 4.63343 15.4892 5.40726 15.8697 6.28891C16.2503 7.17056 16.4406 8.11564 16.4406 9.12415C16.4406 10.1327 16.2503 11.0809 15.8697 11.9689C15.4892 12.8569 14.9659 13.6339 14.2999 14.2999C13.6339 14.9659 12.8601 15.4892 11.9784 15.8697C11.0968 16.2503 10.1485 16.4406 9.13366 16.4406ZM11.0365 11.7215L8.44864 9.13366V5.4802H9.81869V8.56281L12.007 10.7511L11.0365 11.7215Z" fill="#232930"/>
</g>
</g>
</svg>
